<svg width="40" height="177" viewBox="0 0 40 177" fill="none" xmlns="http://www.w3.org/2000/svg">
<path fill-rule="evenodd" clip-rule="evenodd" d="M39.75 177L39.75 145.173C39.9122 144.68 40 144.154 40 143.607L40 33.3933C40 32.8465 39.9122 32.3202 39.75 31.8278L39.75 0.000153163L3 28.3933L3.35741 28.6694C1.40285 29.349 1.43176e-06 31.2073 1.41029e-06 33.3933L3.27937e-07 143.607C3.0647e-07 145.793 1.40274 147.651 3.35717 148.331L3 148.607L39.75 177Z" fill="#EEC599"/>
<path d="M24.4892 86.3722C24.8153 87.1295 24.8153 87.9877 24.4892 88.745L14.2554 112.513C12.9664 115.507 8.5 114.586 8.5 111.327L8.5 63.7905C8.5 60.5309 12.9664 59.6103 14.2554 62.6041L24.4892 86.3722Z" fill="#153438"/>
</svg>
